<?xml version="1.0" standalone="no"?><!DOCTYPE svg PUBLIC "-//W3C//DTD SVG 1.1//EN" "http://www.w3.org/Graphics/SVG/1.1/DTD/svg11.dtd"><svg t="1639559996506" class="icon" viewBox="0 0 1024 1024" version="1.1" xmlns="http://www.w3.org/2000/svg" p-id="842" xmlns:xlink="http://www.w3.org/1999/xlink" width="200" height="200"><defs><style type="text/css"></style></defs><path d="M511.488 1.024C229.0176 1.024 0 229.9904 0 512.512S229.0176 1024 511.488 1024s511.488-229.0176 511.488-511.488S793.9584 1.024 511.488 1.024z m12.544 180.736a83.0976 83.0976 0 1 1 0 166.2464 83.0976 83.0976 0 0 1 0-166.2464z m147.7632 627.6096H393.4208v-36.4544l34.8672-12.9024A49.664 49.664 0 0 0 460.8 713.472v-196.608a49.5616 49.5616 0 0 0-32.512-46.592l-34.816-12.8512v-37.2736h210.944v293.3248c0 20.736 13.0048 39.424 32.512 46.592l34.8672 12.8v36.5056z" fill="#7adab7" p-id="843"></path></svg>